# xmcd CD Database Entry
#
# Track frame offsets:
# 180
# 14855
# 23565
# 45597
# 64235
# 77167
# 90051
# 105032
# 121989
# 136212
# 164459
# 181594
#
# Disc length: 2780 seconds
#
# Revision: 1
# Processed by: cddbd v1.4b41PL1 Copyright (c) Steve Scherf et al.
# Submitted via: tcd 2.0b
#
DISCID=850ada0c
DTITLE=The Essence - A monument of trust
DYEAR=1900
DGENRE=
TTITLE0=A mirage
TTITLE1=Drifting
TTITLE2=In tears
TTITLE3=Nothing...
TTITLE4=The waves of death
TTITLE5=The happiness
TTITLE6=Lollipop
TTITLE7=Years of doubt
TTITLE8=Fire
TTITLE9=The death cell
TTITLE10=A monument of trust
TTITLE11=A mirage (extended version)
EXTD=
EXTT0=
EXTT1=
EXTT2=
EXTT3=
EXTT4=
EXTT5=
EXTT6=
EXTT7=
EXTT8=
EXTT9=
EXTT10=
EXTT11=
PLAYORDER=
